# xmcd
#
# Track frame offsets: 
#        150
#        16940
#        39204
#        54277
#        77445
#        86854
#        111335
#        125816
#        137297
#        153777
#        175655
#        194468
#        211470
#        232436
#        251347
#        269003
#        280701
#
# Disc length: 3902 seconds
#
# Revision: 14
# Processed by: cddbd v1.5.2PL0 Copyright (c) Steve Scherf et al.
# Submitted via: ExactAudioCopy v0.99pb5
#
DISCID=e60f3c11
DTITLE=Various Artist - The Best Smooth Jazz ...Ever! [CD 1)
DYEAR=2004
DGENRE=Jazz
TTITLE0=US3 - Cantaloop
TTITLE1=Buddy Rich - The Beat Goes On
TTITLE2=Bobby Womack - California Dreaming
TTITLE3=Minnie Riperton and Jose Feliciano - Light My Fire
TTITLE4=Bill Withers - Ain't No Sunshine
TTITLE5=Cassandra Wilson - I Can't Stand The Rain
TTITLE6=Louis Armstrong - We Have All The Time In The World
TTITLE7=Julie London - Fly Me To The Moon (In Other Words)
TTITLE8=Billy Taylor - I Wish I Knew How It Would Feel To Be Free
TTITLE9=Ronnie Laws - Always There
TTITLE10=Charlie Hunter With Norah Jones - More Than This
TTITLE11=St. Germain - Sure Thing
TTITLE12=Paul Jackson Jr. - Inner City Blues
TTITLE13=Earl Klugh - I Heard It Through The Grapevine
TTITLE14=Bobby McFerrin - Don't Worry Be Happy
TTITLE15=Nina Simone - Work Song
TTITLE16=Nat 'King' Cole - Nature Boy
EXTD=YEAR: 2004
EXTT0=
EXTT1=
EXTT2=
EXTT3=
EXTT4=
EXTT5=
EXTT6=
EXTT7=
EXTT8=
EXTT9=
EXTT10=
EXTT11=
EXTT12=
EXTT13=
EXTT14=
EXTT15=
EXTT16=
PLAYORDER=
